<svg width="181" height="41" viewBox="0 0 181 41" fill="none" xmlns="http://www.w3.org/2000/svg">
<path d="M23.9448 0H17.9789C17.2236 0 16.6113 0.612299 16.6113 1.36761V11.684C16.6113 12.4393 17.2236 13.0516 17.9789 13.0516H23.9448C24.7001 13.0516 25.3124 12.4393 25.3124 11.684V1.36761C25.3124 0.612299 24.7001 0 23.9448 0Z" fill="#E2241C"/>
<path d="M12.467 21.3916C12.3547 21.7353 12.1109 22.0205 11.7888 22.185C11.4668 22.3494 11.0927 22.3796 10.7484 22.2689L0.94295 19.0795C0.599227 18.9673 0.313961 18.7234 0.149547 18.4014C-0.014866 18.0793 -0.0450424 17.7052 0.0656186 17.361L1.90802 11.6841C2.02035 11.3391 2.26474 11.0526 2.58775 10.8872C2.91076 10.7218 3.2861 10.691 3.63172 10.8016L13.4372 13.991C13.7805 14.1055 14.065 14.3505 14.2291 14.6731C14.3933 14.9956 14.424 15.3697 14.3145 15.7147L12.467 21.3916Z" fill="#E2241C"/>
<path d="M29.4512 21.3914C29.5067 21.5622 29.5954 21.7204 29.7121 21.8569C29.8288 21.9934 29.9712 22.1056 30.1313 22.1871C30.2914 22.2685 30.4659 22.3177 30.645 22.3317C30.824 22.3457 31.0041 22.3243 31.1749 22.2687L40.9804 19.0794C41.3241 18.9671 41.6093 18.7233 41.7738 18.4012C41.9382 18.0791 41.9684 17.7051 41.8577 17.3608L40.0101 11.684C39.8989 11.3393 39.6555 11.0528 39.3333 10.8874C39.0112 10.7219 38.6365 10.691 38.2916 10.8015L28.4861 13.9908C28.142 14.1042 27.8567 14.3491 27.6923 14.672C27.528 14.9948 27.4979 15.3696 27.6088 15.7145L29.4512 21.3914Z" fill="#E2241C"/>
<path d="M18.6958 29.2049C18.9882 29.4187 19.1843 29.7393 19.2413 30.097C19.2983 30.4546 19.2117 30.8204 19.0003 31.1144L12.9312 39.4852C12.7184 39.7773 12.3987 39.9732 12.0419 40.0302C11.685 40.0873 11.3202 40.0008 11.0269 39.7897L6.1964 36.2804C5.90402 36.0666 5.70795 35.746 5.65092 35.3883C5.59389 35.0307 5.68051 34.665 5.89192 34.3709L11.961 26.0207C12.1747 25.728 12.4958 25.5321 12.8538 25.476C13.2118 25.4199 13.5775 25.5081 13.8705 25.7214L18.6958 29.2049Z" fill="#E2241C"/>
<path d="M23.2268 29.2049C22.9332 29.4178 22.7363 29.7386 22.6792 30.0966C22.6221 30.4547 22.7095 30.8208 22.9223 31.1144L28.9862 39.4852C29.1999 39.7776 29.5206 39.9737 29.8782 40.0307C30.2359 40.0877 30.6016 40.0011 30.8957 39.7897L35.7262 36.2804C36.0186 36.0666 36.2146 35.746 36.2716 35.3883C36.3287 35.0307 36.2421 34.665 36.0307 34.3709L29.9616 26.0207C29.7479 25.728 29.4268 25.5321 29.0688 25.476C28.7107 25.4199 28.3451 25.5081 28.0521 25.7214L23.2268 29.2049Z" fill="#E2241C"/>
<path d="M173.127 6.34272H179.207C179.386 6.34229 179.562 6.39334 179.714 6.48982C179.865 6.58631 179.986 6.72416 180.061 6.88709C180.137 7.05002 180.164 7.23117 180.14 7.40909C180.115 7.587 180.041 7.75425 179.924 7.89096L170.258 19.3582C170.115 19.5277 170.036 19.7426 170.036 19.9646C170.036 20.1866 170.115 20.4014 170.258 20.571L180.012 32.1208C180.126 32.2582 180.199 32.4252 180.222 32.6023C180.245 32.7795 180.218 32.9596 180.143 33.1217C180.068 33.2838 179.948 33.4213 179.798 33.5182C179.648 33.6151 179.473 33.6674 179.295 33.669H173.205C173.066 33.669 172.928 33.6379 172.802 33.5781C172.676 33.5183 172.565 33.4313 172.477 33.3233L162.047 20.5607C161.911 20.3918 161.837 20.1815 161.837 19.9646C161.837 19.7477 161.911 19.5374 162.047 19.3685L172.395 6.66269C172.484 6.55484 172.596 6.46793 172.723 6.40818C172.849 6.34842 172.987 6.31726 173.127 6.31689" fill="#E2241C"/>
<path d="M153.743 33.695H158.61C158.733 33.6957 158.856 33.6718 158.97 33.6249C159.084 33.5779 159.188 33.5088 159.275 33.4214C159.363 33.334 159.432 33.2302 159.479 33.116C159.526 33.0017 159.55 32.8793 159.549 32.7557V7.27179C159.549 7.14844 159.525 7.02631 159.477 6.91235C159.43 6.7984 159.361 6.69485 159.274 6.60763C159.187 6.52041 159.083 6.45122 158.969 6.40402C158.855 6.35682 158.733 6.33252 158.61 6.33252H153.743C153.494 6.33387 153.256 6.43326 153.08 6.60911C152.904 6.78496 152.805 7.0231 152.804 7.27179V32.7764C152.804 33.0255 152.903 33.2644 153.079 33.4405C153.255 33.6167 153.494 33.7156 153.743 33.7156" fill="#E2241C"/>
<path d="M77.0128 33.3625H72.0894C71.8474 33.3572 71.6168 33.2587 71.4456 33.0876C71.2745 32.9164 71.176 32.6858 71.1708 32.4438V24.0369C71.1708 23.7892 71.0723 23.5516 70.8972 23.3764C70.722 23.2012 70.4844 23.1028 70.2367 23.1028H60.9472C60.6995 23.1028 60.4619 23.2012 60.2867 23.3764C60.1116 23.5516 60.0131 23.7892 60.0131 24.0369V32.4438C60.0131 32.693 59.9142 32.9319 59.738 33.108C59.5619 33.2842 59.323 33.3831 59.0739 33.3831H54.1402C54.0171 33.3831 53.8952 33.3588 53.7815 33.3115C53.6678 33.2643 53.5646 33.195 53.4778 33.1077C53.391 33.0204 53.3223 32.9168 53.2757 32.8029C53.229 32.689 53.2054 32.567 53.2061 32.4438V6.93927C53.2061 6.69105 53.3043 6.45291 53.4793 6.27691C53.6544 6.10091 53.892 6.00136 54.1402 6H59.0687C59.3174 6.00136 59.5555 6.10074 59.7314 6.27659C59.9072 6.45245 60.0066 6.69058 60.008 6.93927V16.048C60.0073 16.1711 60.031 16.2932 60.0776 16.4071C60.1242 16.521 60.1929 16.6246 60.2797 16.7119C60.3665 16.7992 60.4698 16.8684 60.5834 16.9157C60.6971 16.963 60.819 16.9873 60.9421 16.9873H70.2315C70.3546 16.9873 70.4765 16.963 70.5902 16.9157C70.7038 16.8684 70.807 16.7992 70.8938 16.7119C70.9806 16.6246 71.0493 16.521 71.096 16.4071C71.1426 16.2932 71.1663 16.1711 71.1656 16.048V6.93927C71.167 6.69058 71.2663 6.45245 71.4422 6.27659C71.618 6.10074 71.8562 6.00136 72.1049 6H77.0282C77.2765 6.00136 77.514 6.10091 77.6891 6.27691C77.8641 6.45291 77.9624 6.69105 77.9623 6.93927V32.4438C77.963 32.567 77.9394 32.689 77.8927 32.8029C77.8461 32.9168 77.7774 33.0204 77.6906 33.1077C77.6038 33.195 77.5006 33.2643 77.3869 33.3115C77.2732 33.3588 77.1514 33.3831 77.0282 33.3831" fill="#E2241C"/>
<path d="M85.791 20.0136C85.791 11.5086 92.2317 5.76465 100.701 5.76465C106.811 5.76465 110.305 8.94372 112.24 12.2776C112.303 12.3897 112.343 12.5136 112.356 12.6417C112.369 12.7697 112.356 12.8991 112.316 13.0217C112.277 13.1444 112.213 13.2575 112.128 13.3541C112.043 13.4508 111.939 13.5288 111.822 13.5832L107.425 15.6476C107.215 15.7456 106.977 15.7623 106.756 15.6947C106.535 15.627 106.346 15.4796 106.228 15.2811C105.658 14.3144 104.852 13.5087 103.885 12.9399C102.918 12.371 101.822 12.0578 100.701 12.0298C96.1952 12.0298 93.0161 15.4979 93.0161 19.9981C93.0161 24.4983 96.1952 27.9715 100.701 27.9715C101.822 27.9425 102.919 27.6284 103.886 27.0586C104.853 26.4889 105.659 25.6824 106.228 24.7151C106.346 24.5157 106.534 24.3679 106.756 24.301C106.978 24.2341 107.216 24.2529 107.425 24.3538L111.822 26.4181C111.939 26.4726 112.043 26.5506 112.128 26.6472C112.213 26.7439 112.277 26.857 112.316 26.9796C112.356 27.1022 112.369 27.2316 112.356 27.3597C112.343 27.4877 112.303 27.6117 112.24 27.7238C110.325 30.9957 106.801 34.2315 100.701 34.2315C92.2317 34.2315 85.791 28.4515 85.791 19.9826" fill="#E2241C"/>
<path d="M143.855 33.6947H138.932C138.683 33.6947 138.444 33.5958 138.268 33.4196C138.092 33.2435 137.993 33.0046 137.993 32.7555V13.387C137.993 13.1393 137.894 12.9017 137.719 12.7265C137.544 12.5514 137.306 12.4529 137.059 12.4529H127.769C127.522 12.4529 127.284 12.5514 127.109 12.7265C126.934 12.9017 126.835 13.1393 126.835 13.387V32.7761C126.836 32.8996 126.812 33.0221 126.765 33.1364C126.718 33.2506 126.649 33.3544 126.562 33.4418C126.474 33.5292 126.37 33.5983 126.256 33.6453C126.142 33.6922 126.019 33.7161 125.896 33.7154H120.967C120.844 33.7154 120.722 33.691 120.609 33.6438C120.495 33.5965 120.392 33.5272 120.305 33.4399C120.218 33.3527 120.149 33.2491 120.103 33.1352C120.056 33.0212 120.033 32.8992 120.033 32.7761V7.27152C120.033 7.02378 120.132 6.78616 120.307 6.61098C120.482 6.43581 120.72 6.33742 120.967 6.33742H143.84C143.963 6.33674 144.085 6.36039 144.199 6.40703C144.313 6.45367 144.416 6.52235 144.504 6.60916C144.591 6.69596 144.66 6.79917 144.708 6.91284C144.755 7.02651 144.779 7.14841 144.779 7.27152V32.7761C144.78 32.8996 144.756 33.0221 144.709 33.1364C144.662 33.2506 144.593 33.3544 144.506 33.4418C144.418 33.5292 144.314 33.5983 144.2 33.6453C144.086 33.6922 143.963 33.7161 143.84 33.7154" fill="#E2241C"/>
</svg>
